Coordinates
version=1
nRows=26
nColumns=22
inDegrees=yes

Units are S.I. units (second, meters, Newtons, ...)
If the header above contains a line with 'inDegrees', this indicates whether rotational values are in degrees (yes) or radians (no).

endheader
time	pelvis_tilt	pelvis_list	pelvis_rotation	pelvis_tx	pelvis_ty	pelvis_tz	hip_flexion_r	hip_adduction_r	hip_rotation_r	knee_angle_r	ankle_angle_r	subtalar_angle_r	hip_flexion_l	hip_adduction_l	hip_rotation_l	knee_angle_l	ankle_angle_l	subtalar_angle_l	lumbar_extension	lumbar_bending	lumbar_rotation
      0.01000000	    -14.11126084	      5.04765755	    -27.76658142	     -1.07429626	      0.97373770	     -0.27088856	     17.53823642	      4.73696036	     -7.12074522	    -14.33031377	     17.67692447	     -9.75911961	     19.46132970	     -1.15071203	     -1.28251403	    -15.23340061	     18.86774973	     -3.13180125	     11.78392223	      4.10712653	      1.33237407
      0.02000000	    -14.05410540	      5.02360022	    -27.76604513	     -1.07445109	      0.97381153	     -0.27088573	     17.51636624	      4.73033009	     -7.14045852	    -14.39940255	     17.70721385	     -9.74679118	     19.43394157	     -1.14808667	     -1.27283662	    -15.28742956	     18.87751070	     -3.11576763	     11.64607398	      4.09701248	      1.38239789
      0.03000000	    -13.92104563	      4.93774738	    -27.77250015	     -1.07453833	      0.97404289	     -0.27081814	     17.34925701	      4.75316713	     -7.14007009	    -14.39059885	     17.72014123	     -9.73422570	     19.29502738	     -1.16808051	     -1.25771099	    -15.33345333	     18.91155816	     -3.10499375	     11.39159402	      4.10852774	      1.44494822
      0.04000000	    -13.78974932	      4.85574162	    -27.77480018	     -1.07465892	      0.97426124	     -0.27077967	     17.20417116	      4.77108716	     -7.13174123	    -14.41433573	     17.72646206	     -9.74400440	     19.16374695	     -1.18278896	     -1.22759227	    -15.38075891	     18.93356666	     -3.11023813	     11.13146930	      4.12215743	      1.48283344
      0.05000000	    -13.71216215	      4.78950680	    -27.77263187	     -1.07483875	      0.97437573	     -0.27077656	     17.15011713	      4.79535434	     -7.15440546	    -14.49402497	     17.75332533	     -9.75619521	     19.10987690	     -1.21156257	     -1.21766783	    -15.45501413	     18.95616247	     -3.11476043	     10.93250487	      4.15653138	      1.51653717
      0.06000000	    -13.56363115	      4.68881868	    -27.77368019	     -1.07495802	      0.97461720	     -0.27073373	     16.98613955	      4.82133796	     -7.16908404	    -14.52919533	     17.77972107	     -9.77337933	     18.95686424	     -1.23724561	     -1.19814915	    -15.50936025	     19.00280830	     -3.11487696	     10.64219065	      4.18783704	      1.53367082
      0.07000000	    -13.39509889	      4.60885376	    -27.78993154	     -1.07505362	      0.97489983	     -0.27065390	     16.79703052	      4.82678890	     -7.12475571	    -14.53631999	     17.76929171	     -9.79178814	     18.76572897	     -1.23588968	     -1.17198746	    -15.51593630	     19.00302343	     -3.10641146	     10.34984830	      4.19132837	      1.56040223
      0.08000000	    -13.33687174	      4.57610572	    -27.79352644	     -1.07525116	      0.97496742	     -0.27064449	     16.78206319	      4.83306440	     -7.12863771	    -14.62164593	     17.79526833	     -9.80549985	     18.73853462	     -1.24518601	     -1.16898121	    -15.57832467	     19.01480050	     -3.10584246	     10.19909506	      4.21192739	      1.58608672
      0.09000000	    -13.30273449	      4.56666994	    -27.79347521	     -1.07548197	      0.97500192	     -0.27062026	     16.79564917	      4.83547533	     -7.08745293	    -14.69353338	     17.78936653	     -9.81000060	     18.73731909	     -1.24320291	     -1.14000277	    -15.62391024	     19.00991795	     -3.10304743	     10.09193989	      4.21492103	      1.58715817
      0.10000000	    -13.20107029	      4.54723063	    -27.82691096	     -1.07566059	      0.97512786	     -0.27054880	     16.74715578	      4.81379047	     -7.08859878	    -14.78391539	     17.84813027	     -9.84129538	     18.65006525	     -1.22966614	     -1.19504496	    -15.64939822	     19.03164524	     -3.09348868	      9.91273147	      4.20070481	      1.63999568
      0.11000000	    -13.17796319	      4.54813456	    -27.83194249	     -1.07589261	      0.97515440	     -0.27050040	     16.77055822	      4.81513028	     -7.03855400	    -14.84573078	     17.83420662	     -9.84521933	     18.64896280	     -1.22580099	     -1.17381326	    -15.66892065	     19.01876633	     -3.08930509	      9.83336850	      4.19777598	      1.63297807
      0.12000000	    -13.12942704	      4.57385067	    -27.87384850	     -1.07613323	      0.97519058	     -0.27041816	     16.80122351	      4.78327081	     -7.00070595	    -14.94386397	     17.86879153	     -9.87307490	     18.62542259	     -1.19908392	     -1.22512078	    -15.67716874	     19.00697907	     -3.07914638	      9.74114465	      4.16213641	      1.69435239
      0.13000000	    -13.11427770	      4.60203040	    -27.90073434	     -1.07639665	      0.97518134	     -0.27034501	     16.85831360	      4.76631686	     -6.94968250	    -15.02807314	     17.88342620	     -9.89440487	     18.63837047	     -1.18250249	     -1.24752749	    -15.68737560	     18.99278413	     -3.07015648	      9.68915152	      4.13686936	      1.72291223
      0.14000000	    -13.12368681	      4.64474757	    -27.92838294	     -1.07668259	      0.97511840	     -0.27026507	     16.95246040	      4.74763654	     -6.90648090	    -15.12367214	     17.90612805	     -9.92053967	     18.68417608	     -1.16725009	     -1.28298438	    -15.70074349	     18.98261277	     -3.06129048	      9.67458970	      4.10793211	      1.74998941
      0.15000000	    -13.12466823	      4.65387948	    -27.93522731	     -1.07692808	      0.97509669	     -0.27019134	     17.00020482	      4.75282961	     -6.87350915	    -15.18133845	     17.90159249	     -9.92570236	     18.70023894	     -1.17204130	     -1.28168105	    -15.70127861	     18.97832473	     -3.05892756	      9.63913631	      4.10832063	      1.72506968
      0.16000000	    -13.17574951	      4.72752620	    -27.97315615	     -1.07725483	      0.97493329	     -0.27010365	     17.16123111	      4.72658716	     -6.83638616	    -15.29819360	     17.94682177	     -9.96387683	     18.80976373	     -1.15462790	     -1.34222528	    -15.73192678	     18.97636213	     -3.04901214	      9.68881121	      4.07524086	      1.76740367
      0.17000000	    -13.18202637	      4.73748598	    -27.98180363	     -1.07747175	      0.97489914	     -0.27000744	     17.20084972	      4.73421523	     -6.80911868	    -15.33384442	     17.93981312	     -9.96727198	     18.82243464	     -1.16208947	     -1.34351349	    -15.72059784	     18.97443453	     -3.04652870	      9.66726143	      4.08372748	      1.72379549
      0.18000000	    -13.24241157	      4.79793446	    -28.01330845	     -1.07778113	      0.97472884	     -0.26991247	     17.34793299	      4.72484095	     -6.77342876	    -15.42216941	     17.96949373	    -10.00202367	     18.93646148	     -1.16091144	     -1.39544391	    -15.75719347	     18.98042167	     -3.03317052	      9.72373718	      4.07516790	      1.72856357
      0.19000000	    -13.24873816	      4.81232994	    -28.03052786	     -1.07797617	      0.97469341	     -0.26978960	     17.37908472	      4.72896322	     -6.75416403	    -15.44186368	     17.96390764	    -10.00432638	     18.94275723	     -1.16776991	     -1.40542445	    -15.73506206	     18.98180824	     -3.03091635	      9.70948384	      4.08469114	      1.67544213
      0.20000000	    -13.25565765	      4.83090899	    -28.05569837	     -1.07818664	      0.97464931	     -0.26966460	     17.41634212	      4.73085070	     -6.73137767	    -15.46762917	     17.96473113	    -10.00905842	     18.95670907	     -1.17409171	     -1.42680252	    -15.72432229	     18.98391371	     -3.02867676	      9.69349447	      4.09210549	      1.62757081
      0.21000000	    -13.32615380	      4.90016369	    -28.10519537	     -1.07848776	      0.97447077	     -0.26951860	     17.55796985	      4.72649839	     -6.66862801	    -15.52321561	     17.97823370	    -10.04355684	     19.07031391	     -1.17838937	     -1.50085626	    -15.74106754	     18.99066366	     -3.00295722	      9.76681469	      4.08058232	      1.63275990
      0.22000000	    -13.32929502	      4.91601808	    -28.13392176	     -1.07869200	      0.97443683	     -0.26939219	     17.58082070	      4.72849393	     -6.65437108	    -15.53152060	     17.97808479	    -10.04550151	     19.08253848	     -1.18630089	     -1.52077126	    -15.73894873	     18.99107479	     -3.00287277	      9.74067882	      4.08448826	      1.58546294
      0.23000000	    -13.35327813	      4.94541098	    -28.18694282	     -1.07896393	      0.97436060	     -0.26922561	     17.63489434	      4.74036822	     -6.60177176	    -15.54345359	     17.98251287	    -10.05824352	     19.13542691	     -1.20559113	     -1.60209770	    -15.76375265	     19.00075038	     -2.99976061	      9.73649585	      4.08074720	      1.58688543
      0.24000000	    -13.36245135	      4.96203734	    -28.22651560	     -1.07919710	      0.97432270	     -0.26906344	     17.66329570	      4.75073880	     -6.58185446	    -15.55013154	     17.97658651	    -10.06092352	     19.15252105	     -1.21874240	     -1.61778206	    -15.75974120	     19.00179536	     -2.99843073	      9.71204517	      4.07542755	      1.55806189
      0.25000000	    -13.39728780	      4.99282905	    -28.29663371	     -1.07950490	      0.97423718	     -0.26884464	     17.72364334	      4.77560850	     -6.51337082	    -15.55089104	     17.96554011	    -10.07514244	     19.21850887	     -1.24859336	     -1.70640481	    -15.79149684	     19.01278041	     -2.99514461	      9.71548450	      4.06579028	      1.59659526
      0.26000000	    -13.40718112	      5.01020480	    -28.34179325	     -1.07980093	      0.97420117	     -0.26867210	     17.75798962	      4.79007706	     -6.48269609	    -15.56020737	     17.95554447	    -10.07892690	     19.25207495	     -1.26299186	     -1.72048023	    -15.81142449	     19.01139654	     -2.99326807	      9.67878343	      4.05164640	      1.58542901
